<svg width="26" height="40" viewBox="0 0 26 40" fill="none" xmlns="http://www.w3.org/2000/svg">
<path d="M22.939 3.45411C23.8523 2.61886 25.2688 0.803506 25.2688 0.468318C25.2688 0.385674 25.3459 0.317993 25.4402 0.317993C25.879 0.317993 25.2231 3.51256 24.4523 5.13019C22.2981 9.6511 18.4172 12.0121 9.14751 14.4411C4.22375 15.7313 0.860886 17.6558 0.860886 19.1832C0.860886 19.2671 0.783745 19.3358 0.689428 19.3358C0.439022 19.3358 0.652516 17.4431 1.0331 16.2884C2.2327 12.6491 4.65209 10.9173 11.6335 8.70063C18.3677 6.56253 20.7479 5.45796 22.939 3.45411Z" fill="white"/>
<path d="M5.91437 7.83784C4.67816 6.49765 5.01731 4.50722 6.63501 3.60723C7.91898 2.89294 9.80592 3.25078 10.6124 4.36151C12.7347 7.28451 8.37746 10.5087 5.91437 7.83784Z" fill="white"/>
<path d="M17.2515 12.4232C16.0329 13.2578 14.5409 13.7908 11.3766 14.5223C6.61859 15.6223 5.00766 16.7319 4.25011 19.4308C3.8519 20.8501 3.99308 22.1175 4.44402 21.1718C5.14432 19.7035 7.35835 18.5555 11.8898 17.3111C16.2579 16.1113 18.3762 14.409 18.1573 12.2747L18.1121 11.8338L17.2515 12.4232Z" fill="#FF5C00"/>
<path d="M17.8143 14.8508C17.4136 16.0222 15.0661 17.2743 11.0141 18.4774C5.23517 20.1935 3.57121 21.6108 2.37206 25.8382C1.45873 29.0579 1.18542 36.9248 1.905 39.2857L2.02568 39.682L2.11412 39.1925C2.16279 38.9234 2.313 37.9795 2.448 37.095C3.67728 29.0366 6.01125 25.2742 11.7299 22.1325C15.4949 20.064 18.1875 16.9924 18.1875 14.7656C18.1875 14.4847 17.9185 14.5459 17.8143 14.8508Z" fill="#FF5C00"/>
</svg>
